<?xml version="1.0"?>
<svg xmlns:rdf="http://www.w3.org/1999/02/22-rdf-syntax-ns#" xmlns="http://www.w3.org/2000/svg" xmlns:cc="http://web.resource.org/cc/" xmlns:dc="http://purl.org/dc/elements/1.1/" xmlns:sodipodi="http://inkscape.sourceforge.net/DTD/sodipodi-0.dtd" xmlns:svg="http://www.w3.org/2000/svg" id="Layer_1" style="enable-background:new 0 0 385.255 447.206" xml:space="preserve" sodipodi:version="0.32" viewBox="0 0 385.255 447.206" version="1.0" sodipodi:docname="Profilati Profil.svg" sodipodi:docbase="F:\openclip\svg2">
<sodipodi:namedview id="base" bordercolor="#666666" borderopacity="1.0" pagecolor="#ffffff"/>
<g id="g3">
	<polygon id="polygon5" fill-rule="evenodd" points="49.74 91.792 50.193 91.792 50.193 91.792 50.193 91.792 50.193 91.792 50.193 91.792 50.193 92.244 50.193 92.244 50.193 92.244 50.193 92.244 50.193 92.244 50.645 91.34 50.193 91.792 50.193 91.792" clip-rule="evenodd" fill="#0f0"/>
	<path id="path7" fill="#EBDABA" d="m56.07 86.367l15.374 4.521 15.376 4.069 14.469 4.069 14.922 4.069 14.921 4.071 14.921 4.069 14.924 3.616 15.374 3.167 15.374 3.164 15.826 3.166 15.373-7.688 15.826-7.686 15.377-7.688 14.92-7.686 15.373-8.141 15.375-7.686 14.922-8.14 15.377-7.686 15.371-7.688 15.826-7.688-9.949 4.974-9.943 5.427-9.949 5.425-9.949 5.427-9.949 5.427-9.949 5.425-9.945 5.427-9.949 5.425-9.947 4.975-9.947 4.974-7.686 9.949 2.26 2.26 79.129-40.245 3.166-0.45 3.166-1.358 3.617-1.355 3.166-1.809 3.166-1.81 3.166-1.808 3.162-2.261 3.166-1.808 3.166-1.809 3.617-1.808h3.164v2.261l-3.615 3.164-4.521 2.713-4.072 2.261-4.521 1.808-4.521 1.808-4.521 1.811-4.066 2.26-3.166 3.165-3.168 3.618-1.809 4.521-1.807 0.903-1.355 0.906-1.811 0.902-1.357 1.358-1.809 0.903-0.906 1.358-1.355 1.355-0.449 1.808-0.455 1.358 0.455 1.809 0.449 0.905 0.906 0.903 1.355 0.453h1.355l0.904 0.453h0.906l0.904 0.452v0.903l-0.455 0.905-0.9 1.809 3.617-1.356 3.615-1.358 4.072-2.261 3.617-1.808 4.066-2.261 4.072-2.261 3.615-1.808 3.617-2.261 4.07-1.808 3.617-1.358-2.711 1.808-2.717 1.811-2.711 1.808-2.711 1.808-2.715 1.809-2.711 1.808-2.717 1.81-2.711 1.356-2.711 1.809-2.262 1.358 44.764-26.681 0.904-59.233-104.91-16.716-213.88 75.965 20.348-6.783 20.348-7.233 20.348-7.235 20.349-6.783 20.348-7.235 19.895-7.236 20.349-7.235 20.348-7.233 20.348-6.783 20.348-7.235-20.801 9.496-21.25 8.591-20.82 8.139-21.706 8.141-21.251 7.685-21.253 7.688-21.705 7.685-21.253 7.688-21.251 8.139-21.253 8.141h-0.453zm323.76-50.645l-0.455 0.452v0.453l-0.449 0.453v0.45l-0.455 0.453-0.451 0.452h-0.449l-0.455 0.453-0.451 0.453v0.45h-3.166v-1.808l0.451-0.903 0.455-0.453 0.904-0.453 0.902-0.452h0.904l0.904-0.453 0.906 0.453h0.92z"/>
	<path id="path9" fill="#C9BA9B" d="m381.64 132.04l-10.4 8.139-11.303 7.688-10.854 7.686-10.85 7.688-10.855 7.686-11.305 7.688-10.85 7.236-10.852 7.685-10.854 7.689-10.854 8.138 0.451 0.453 0.453 0.452v1.808l-0.453 0.905v0.904l0.453 0.906h-4.068l-4.07-0.453-3.617-0.453-4.07-0.903-4.068-0.905-3.619-1.355-4.07-0.905-3.615-0.903-4.068-0.905-3.619-0.906-2.262 2.262 0.453 0.453 0.453 0.452 0.451 0.453 0.904 0.903 0.451 0.452 0.453 0.453 0.453 0.906 0.451 0.45v1.811l-0.451 0.45h-0.453l-0.453 0.453-0.451 0.452h-0.453l-0.451 0.452h-0.451l-0.453 0.453-0.453 0.451v0.451l-8.592-4.068v1.809l0.455 1.809 1.355 1.811 1.807 1.355 1.811 1.808 1.809 1.809 1.355 1.808 0.906 1.81 0.451 1.809-0.451 2.262-9.043-9.952-8.592-9.945-9.045-9.496-9.043-9.497-9.042-9.495-9.045-9.494-9.495-9.496-9.497-9.497-9.948-9.496-10.4-9.946h-0.905l-0.45 0.45h-0.453l-0.453 0.452-0.904 0.454-0.451 0.453-0.452 0.452v0.451l-0.453 0.905v0.452l7.688 150.12 2.711 4.072 3.619 4.068 4.068 3.617 4.07 3.166 4.521 3.164 4.975 2.713 4.975 2.715 4.522 2.713 4.975 2.713 4.972 2.262v2.26l-46.574-26.229-0.905-15.824-0.903-15.826-0.453-16.279-0.452-16.73-0.903-16.278-0.452-16.732-0.906-16.729-0.902-16.278-0.906-16.28-0.905-15.826 6.333-4.068 6.33 0.452 6.33 0.903 5.878 0.452 6.332 0.905 5.878 0.453 5.876 0.451 5.879 0.905 6.331 0.453h6.33l6.783 0.454 0.453-0.454 0.451-0.453 0.453-0.905 0.904-0.451 0.451-0.453 0.455-0.905v-3.163l-14.925-4.975-15.374-4.522-14.921-4.069-15.374-4.072-15.375-4.069-15.374-4.068-14.921-3.617-15.374-3.619-15.375-3.164-14.921-3.619-1.356 1.357-0.452 0.903 4.521 4.975 4.974 4.069 5.878 3.618 5.427 2.711 5.877 2.261 6.33 2.26 5.88 2.261 5.425 2.714 4.974 3.166 4.975 4.069 0.453 16.731 0.903 16.277 1.358 16.279 0.903 16.278 0.905 16.278 0.903 15.827 0.906 16.278 0.452 15.826v16.277l-0.452 15.826-2.261 0.906-2.713 0.904-2.713 0.451h-2.711l-2.714-0.451-2.713-0.453-2.713-0.451-2.713-0.453-2.711-0.902-2.261-0.453 1.808-0.453h6.33l3.617 0.453h6.783l2.713-1.359 1.808-1.807 0.453-3.164-0.453-4.523-0.45-2.26v-2.26l-0.453-2.715v-7.235l-0.453-2.262v-7.688l-0.905 0.451-0.903 0.906-1.357 0.453-0.903 0.902-0.905 0.453-0.903 0.904-0.906 0.451-0.905 0.904-0.903 0.453-0.905 0.902-42.504 27.131v9.949l14.471 5.428 14.921 5.424 14.921 5.428 14.47 5.426 14.921 5.879 14.923 5.424 14.921 5.428 14.922 4.975 14.921 4.975 15.375 4.521-0.453-1.357v-1.809l-0.451-1.355-0.904-1.811-0.453-1.809-0.902-1.809-0.906-1.807-0.904-1.359-0.902-1.809-0.455-1.355 1.811-0.904h1.357l0.902 0.904 0.904 0.904 0.453 0.904 0.904 1.355 0.906 0.906 0.9 0.453h0.906l1.809-0.906 2.713-2.262 3.166-2.26 3.164-2.715 3.166-2.711 3.164-2.713 3.166-2.262 2.713-2.26 3.164-1.357 3.166-0.904 3.617-0.451v3.615l-3.617 2.713-3.166 2.715-3.164 2.713-3.619 2.713-3.162 2.262-3.166 2.711-3.164 2.715-3.166 2.713-2.715 3.166-2.26 3.615 1.809 2.262 4.07-4.521 4.973-4.07 5.881-3.617 5.875-4.07 5.428-4.068 4.975-4.521 3.164-4.975 1.809-5.877-0.449-6.783-3.168-7.689-4.07-3.162-4.973-2.262-5.877-1.811-5.428-0.902-5.877-0.906-4.975-1.807-4.521-2.262-2.715-3.617-1.355-4.975 0.904-7.234 3.617-2.713 4.07-2.715 3.617-2.711 4.068-2.713 4.07-2.715 3.617-3.164 4.068-2.713 3.619-2.713 4.068-2.713 4.07-2.715 141.08-104.9v-9.949l-0.9 0.452v4.975h-0.52v0.02zm-232.87 159.61v-3.164l5.427-3.617 5.424-3.166 4.975-3.615 5.427-3.619 5.424-3.164 5.427-3.617 5.427-3.166 5.426-3.617 5.428-3.166 5.877-3.166-5.426 3.619-5.426 4.068-4.976 4.07-5.424 4.068-4.975 4.07-5.427 4.07-5.426 3.617-5.427 3.619-5.876 3.162-5.88 2.73zm60.59-42.5l0.451-1.359 0.906-1.355 1.355-0.904 1.357-0.904 1.355-0.904 1.355-0.453 1.359-0.902 1.355-0.453 1.357-0.453 1.355-0.902-0.453 0.902-0.902 1.359-0.904 0.902-1.355 0.904-1.359 1.357-1.355 0.904-1.357 0.902-1.809 0.453-1.355 0.451-1.4 0.44z"/>
	<polygon id="polygon11" fill-rule="evenodd" points="96.313 255.48 97.671 255.03 98.574 254.12 99.479 253.67 100.38 252.77 101.29 252.32 102.19 251.41 103.1 250.96 104.45 250.05 105.36 249.6 106.26 248.7 58.331 277.18 62.399 274.92 66.019 272.66 70.088 270.85 73.705 268.59 77.776 266.33 81.392 264.07 85.461 261.81 89.08 259.55 92.696 257.29 96.766 254.58 96.766 255.48 96.766 255.48" clip-rule="evenodd" fill="#BCB4A6"/>
	<polygon id="polygon13" fill-rule="evenodd" points="48.834 284.42 48.834 284.42 48.834 284.42 48.834 283.97 48.834 283.97 48.834 283.97 48.834 283.52 48.834 283.52 48.834 283.52 48.834 283.06 48.834 283.06" clip-rule="evenodd" fill="#BCB4A6"/>
	<polygon id="polygon15" points="246.89 156 246.44 158.26 327.83 109.43 320.14 113.95 312 118.47 304.32 122.99 296.63 127.52 288.49 131.58 280.35 136.1 272.21 140.63 264.07 145.6 255.93 150.57 247.34 156 247.34 156" fill="#BCB4A6"/>
	<polygon id="polygon17" points="383.9 97.218 383.9 97.218 383.9 97.218 383.9 97.218 383.9 97.218 383.9 97.218 383.9 97.218 383.45 97.218 383.45 97.671 383.45 97.671 383.45 97.671 382.99 126.61 385.26 124.8 385.26 75.063 383.9 75.965 383.45 96.313 383.45 96.313 383.45 96.313 383.45 96.313 383.9 96.313 383.9 96.765 383.9 96.765 383.9 96.765 383.9 96.765 383.9 97.218 384.35 97.218 384.35 97.218" fill="#A89E8F"/>
	<polygon id="polygon19" points="327.83 109.43 246.44 158.26 246.44 159.17 248.7 160.07 251.86 160.98 254.58 162.33 257.29 163.24 260.46 164.14 263.17 164.59 265.88 164.59 269.05 164.14 271.76 163.24 274.47 161.43 283.52 156.91 292.56 151.93 301.15 146.96 309.74 141.53 317.88 136.1 326.47 130.23 335.06 124.8 343.66 119.38 352.25 114.4 361.29 109.43 357.22 115.76 348.18 120.73 339.59 126.16 330.54 131.13 321.5 136.56 312.46 141.98 303.86 147.86 294.82 153.74 286.23 159.17 277.18 165.5 269.05 171.38 268.6 174.09 268.6 177.25 268.6 179.96 269.05 182.68 269.5 185.39 269.95 188.11 270.4 190.82 270.4 193.53 270.4 196.24 270.4 199.41 275.83 199.41 286.68 192.63 297.08 185.39 307.93 177.7 318.79 170.02 329.64 162.33 340.04 154.65 350.44 146.96 361.29 139.27 371.69 131.58 382.09 124.35 382.09 127.06 382.99 126.61 383.45 97.671 382.54 98.123 382.09 98.574 381.19 99.026 380.73 99.932 380.28 100.38 379.38 100.38 378.93 100.83 378.02 100.83 377.57 100.38 376.66 99.479 376.66 98.574 377.12 98.123 378.02 97.218 378.47 96.313 379.38 95.863 380.28 95.41 381.19 95.41 382.09 95.41 382.54 95.41 383.45 96.313 383.9 75.965 339.14 102.65 337.77 103.55 336.87 104 335.52 104.91 334.61 105.36 333.26 106.26 332.35 106.72 330.99 107.62 330.09 108.07 328.73 108.98" fill="#B3ACA3"/>
	<path id="path21" fill="#BFAC8F" d="m214.33 269.5l4.521 2.262 4.521 1.809 4.068 1.809 4.975 1.357 4.521 1.809 4.523 1.355 4.52 1.357 4.975 1.355 4.523 1.355 4.975 1.359 7.234-4.975 7.232-5.428 7.236-4.971 7.234-5.881 7.236-5.424 7.232-5.428 6.781-5.879 7.238-5.426 7.234-5.428 7.236-5.424-6.332 6.33-6.332 6.33-6.781 5.879-7.234 5.877-6.783 5.879-7.234 5.426-7.236 5.428-7.234 5.424-6.783 5.428-6.781 5.426-0.451 14.922v15.373l0.451 15.375v14.924l0.451 15.373 0.453 14.92 0.451 14.924 0.453 14.471 0.904 14.467 0.904 14.02 10.852-11.305 10.4-11.305 10.854-11.303 10.4-11.305 9.945-11.758 10.404-11.758 10.398-12.209 9.949-12.207 10.398-12.211 10.398-12.207h0.906l0.906 0.449h0.9l0.906 0.453 0.453 0.453 0.902 0.453 0.904 0.453 0.904 0.451 0.451 0.451 0.904 0.453 3.168-180.42-9.494 7.236-9.949 6.783-9.949 7.232-9.494 6.783-9.949 7.235-9.947 7.235-9.949 7.235-9.494 7.236-9.947 7.232-9.951 7.235-70.08 55.18zm165.5-75.52v0.906l-0.455 0.453v0.451h-0.449v0.453h-0.455l-0.451 0.452h-0.449v0.453h-3.166l-0.455-0.905 0.455-0.903v-0.905l0.904-0.454 0.451-0.452 0.904-0.45 0.451-0.454h0.904l0.906 0.454 0.9 0.91zm-17.18 11.76l-0.902 2.714-1.809 2.261-1.811 2.714-2.262 2.261-2.711 1.808-2.711 2.261-2.715 1.81-3.168 1.353-2.711 1.359-2.26 1.355 1.811-2.26 1.805-2.262 2.262-2.261 2.262-2.26 1.811-2.262 2.711-1.808 2.26-1.808 2.717-1.808 2.26-1.811 3.15-1.34z"/>
	<polygon id="polygon23" points="212.52 269.05 212.98 269.05 212.98 269.05 213.43 269.05 213.43 269.5 213.43 269.5 213.88 269.5 213.88 269.5 213.88 269.5 214.33 269.5 214.33 269.5 284.42 214.33 277.18 219.76 269.95 225.18 262.72 230.61 255.48 236.04 248.24 241.46 241.01 246.89 233.78 252.32 227 258.2 219.76 263.62 212.98 269.05 212.98 269.05" fill="#A89E8F"/>
	<polygon id="polygon25" fill-rule="evenodd" points="382.54 136.56 241.92 241.46 255.93 231.06 270.4 220.66 284.42 210.72 298.89 200.31 312.91 189.46 326.92 179.06 340.94 168.66 354.96 157.81 368.98 147.41 382.99 136.56 382.99 136.56" clip-rule="evenodd" fill="#A89E8F"/>
	<path id="path27" d="m49.287 99.026l0.906-6.783v-0.452l0.452-0.451 1.808-10.401 13.565-4.975-1.808 0.906-2.261 0.453-2.261 0.903-1.811 0.905-2.261 0.453-1.808 0.902-2.261 0.453-1.809 0.905-2.261 0.453-1.807 0.903-0.905 8.592 1.808 6.332 3.619 4.973 4.974 3.619 5.877 2.713 6.331 2.71 6.783 2.261 6.33 2.261 5.879 3.618 4.974 4.069-9.496 4.069-9.044 3.619-9.044 4.069-9.043 4.07-9.044 3.616-9.496 4.071-9.043 4.07-9.043 4.068-9.043 3.616-9.044 4.06 3.166 97.67 6.783 0.904 9.044-4.975 9.043-4.973 9.044-5.426 9.044-5.879 9.043-5.426 9.044-5.426 9.043-5.426 9.494-4.975 9.497-4.521 9.949-4.07 0.453 3.617 0.903 3.617 0.453 3.618 0.452 3.616 0.453 4.069 0.451 3.619 0.453 4.07v7.687l0.452 3.615-1.808-124.35-55.143-25.324zm26.678 91.794l1.358-7.688-0.905-0.452-0.903-0.453h-1.357l-0.903-0.451-0.905 0.451h-2.714l-0.903 0.905v0.905l0.45 0.903 0.906 0.906 0.452 0.902 0.903 1.358v1.808l-0.45 0.905-1.358 0.903-55.617-14.921-3.166 3.164v7.236l0.453 7.235 0.453 7.235v7.235l0.452 7.233 0.45 7.236 0.453 6.784 0.452 7.234 0.906 7.234 0.902 6.783 2.261-3.166-1.355-62.853 4.521 3.167 4.521 4.068 4.975 3.618 4.521 4.068 4.973 4.522 4.521 4.071 4.521 4.522 4.522 4.973 4.071 4.519 4.521 4.523-54.259 29.4-0.453-8.59-0.453-8.592-0.452-8.59-0.453-8.592v-9.043l-0.45-8.593-0.452-9.043v-17.635l0.452-9.043 4.521 0.452 4.522 0.905 4.972 1.356 4.975 1.355 5.427 1.358 4.974 0.903 5.425 1.357 4.975 0.903 4.975 0.452 5.424 0.453-4.068-1.808-4.522-1.357-4.069-1.808-4.521-1.355-4.522-1.358-4.522-1.356-4.069-1.808-4.521-1.358-4.521-1.355-4.069-1.356 83.2-37.079 0.453 4.068 0.903 4.07 0.453 4.071 0.452 4.522 0.453 4.068 0.451 4.07v4.521l0.453 4.07v9.043l-1.808 0.452-1.809 0.905-1.808 0.903-1.811 0.453-1.355 0.906-1.809 0.903-1.358 1.357-1.355 0.903-1.356 1.357-0.905 1.356 1.355 0.454h3.166l1.356-0.906 1.81-0.903 1.355-0.905 1.356-1.355 1.358-0.905 1.809-0.453 1.808-0.454v3.167l-1.356 2.714-1.358 2.26-2.711 1.808-2.714 1.356-3.166 0.905-3.164 1.355-3.167 1.358-3.166 0.903-2.263 1.78z"/>
	<polygon id="polygon29" points="382.54 142.89 382.99 136.56 382.54 142.89 382.54 142.89 382.54 142.89 382.54 142.89 382.54 142.89 382.54 142.89 382.99 142.89 382.99 142.89 382.99 142.89 382.99 142.89 382.99 142.89 382.99 142.89" clip-rule="evenodd" fill-rule="evenodd"/>
	<polygon id="polygon31" points="208 274.47 208.91 283.06 251.86 296.18 247.34 294.37 243.27 292.56 239.2 291.2 234.68 289.39 230.16 288.04 226.09 286.68 221.57 285.33 217.5 283.52 212.98 281.71 209.36 279.9 208.45 274.47 208.45 274.47" clip-rule="evenodd" fill-rule="evenodd"/>
	<polygon id="polygon33" points="212.52 270.85 208.45 274.47 238.75 282.61"/>
	<polygon id="polygon35" points="293.01 417.81 382.54 326.02 382.09 326.02 382.09 325.57 381.64 325.12 381.19 325.12 381.19 324.66 380.73 324.66 380.28 324.21 379.83 323.76 379.83 323.76 379.38 323.31 379.38 326.92 293.46 418.26 293.46 418.26" clip-rule="evenodd" fill-rule="evenodd"/>
	<polygon id="polygon37" points="48.384 283.06 58.331 277.18 57.428 277.64 56.522 278.54 55.617 279 54.714 279.45 53.356 279.9 52.453 280.8 51.548 281.26 50.645 281.71 49.74 282.61 48.834 283.06 48.834 283.06" clip-rule="evenodd" fill-rule="evenodd"/>
	<path id="path39" d="m260 292.11l-2.715-1.359 2.262 6.332 2.262 144.24-5.879-1.355-5.879-0.904-5.877-1.355-5.877-1.807-6.334-1.361-5.877-1.805-5.877-1.811-5.879-2.262-5.879-2.262-5.426-2.26 2.262-6.783 38.887-35.721v40.244h-6.783l-3.166-0.906-3.617-1.355-3.166-0.906-3.162-1.355-3.619-0.904-3.164-0.9-3.619-0.455-3.164 0.455v1.805l3.617 1.813 3.619 1.805 4.068 1.811 3.617 1.811 4.068 1.355 4.07 1.355 3.617 1.355 4.07 0.906 4.068 0.451 4.07 0.453v2.261l0.451 0.904v0.451l0.453 0.449 0.451 0.455v0.451l0.906 0.455 0.449-13.566 0.453-12.209v-23.939l-0.453-11.758v-11.305l-0.449-11.754-0.453-11.758v-24.869 4.521l-45.217 33.008-155.52-58.79-1.811-9.045v3.166l-0.45 1.355-0.452 1.357v1.355l-0.453 1.355 0.453 1.359v1.355l0.902 0.904 1.359 1.355 7.235 2.715 7.233 2.713 7.235 2.715 7.688 2.26 7.235 2.711 7.233 2.715 7.236 2.713 7.235 3.166 6.783 3.164 7.235 3.619-8.141 6.328-8.139 6.332-8.591 5.877-8.14 5.879-8.139 5.879-8.138 5.879-8.141 5.877-8.139 6.33-8.141 5.879-7.685 6.33v10.854l1.355 2.26 1.358 2.262 1.808 2.262 1.809 2.26 2.261 1.811 2.261 1.807 2.26 1.355 2.713 0.455h2.714l3.164-0.455 9.949-7.232 9.496-7.234 9.494-7.238 9.497-7.686 9.496-7.234 9.043-7.688 9.497-7.234 9.496-7.234 9.947-7.688 9.948-7.236 4.07 3.168-0.906 0.451 13.565 3.164-61.946 50.645-11.305 10.4h-0.453v0.453l-0.452 0.451-0.453 0.904v1.355l-0.45 1.357-0.453 1.811-0.453 2.26v5.428l0.453 0.451 0.903 0.904 0.453 0.451 0.452 0.904v0.904l0.453 0.906v1.804l0.453 0.906 0.451 0.906 1.81 2.711 1.809 2.715 2.261 2.711 2.713 2.713 2.261 2.26 3.164 1.811 2.713 1.811 3.166 0.9 3.617 0.457 3.617-0.457h1.81l0.903-0.449 0.905-0.906 0.453-0.451 0.902-0.453 0.453-0.451 0.905-0.451 0.903 0.451 0.905 0.451h-0.453v0.453h2.261l34.819-29.391 67.825-61.496-0.451 25.322-41.602 37.98v0.453l-0.451 0.906-0.451 1.357v1.805l-0.453 1.811 0.453 2.26 0.451 1.811 0.904 2.262 1.355 1.355 2.26 1.355 2.262-0.449 2.262 0.449h1.811l2.26 0.906 2.262 0.904 1.809 0.9 2.26 0.906 1.809 0.904 1.809 0.906 2.262 0.906 36.174 8.139-1.355-154.19h-0.4zm-208 90.89l6.33-4.975 6.33-4.975 6.783-4.521 6.333-4.973 6.783-4.523 6.782-4.521 6.33-4.521 6.783-4.521 6.783-4.068 7.235-4.07 1.355 0.451h1.808l1.809 0.451 1.81 0.453 1.808 0.453 1.809 0.906 1.356 0.9 0.904 0.906 0.906 1.355 0.45 1.809-65.113 49.74-15.396-11.75zm82.749-31.66l-65.113 49.74 65.113-52.906v3.17zm46.57-3.16h0.454l0.449 0.453v0.453h0.453v0.449l0.454 0.453v0.904l0.453 0.453-0.453 0.451-0.454 0.451h-2.261l0.9-4.05zm-70.54 79.13l0.905-1.811 1.355-1.355 1.356-0.904 2.261-0.451h1.81l2.261 0.904 1.808 0.451 2.261 1.355 1.356 1.359 1.808 1.357v3.165l-0.45 0.9-0.453 0.455-0.905 0.449-0.453 0.906-0.45 0.449-0.453 0.455-1.809 0.451h-1.81l-1.356-0.451-1.355-0.904-1.358-0.906-1.355-0.904-1.358-1.355-1.356-1.355-0.905-0.906-1.36-1.36zm18.54 14.01l-4.522-0.9 0.903-0.455 1.358-0.449 0.903-0.455 0.905-0.451 0.905-0.904 0.903-0.906 0.905-0.9 0.453-1.361 0.903-0.9 0.452-0.904-0.452-3.166-0.903-2.713-0.453-2.715-1.357-2.711-0.903-2.26-1.358-2.264-1.808-2.26-1.809-2.26-2.713-1.811-2.26-1.807-1.809-0.455-1.808-0.451h-1.808l-1.811 0.451-1.808 0.455-1.355 0.9-1.358 1.361-1.356 1.355-1.355 1.355-0.453 1.811h0.903v5.422h-0.903l-0.452-1.805-0.453-1.813v-4.067l0.453-1.809 0.452-1.813 1.356-1.355 0.905-1.355 1.808-0.904 2.261-0.451 2.713 0.451 3.164 0.904 3.166 1.355 2.714 1.811 2.713 1.807 2.711 2.26 2.261 2.715 2.26 2.713 1.811 2.715 1.355 2.711-0.453 1.811 0.453 2.262v4.067l-0.453 1.811-0.452 1.807-0.45 1.811-1.358 1.355-1.356 0.906-2.21 0.45zm-12.21-40.24l4.521-4.521 4.975-4.521 4.975-4.523 5.425-4.521 4.975-4.07 5.879-4.07 5.424-4.068 5.879-4.07 5.878-4.068 6.33-3.619h2.713l2.714 0.453 2.712 0.451 2.711 0.904 2.714 0.904 2.26 1.355 2.261 1.813 1.81 2.26 1.81 2.262 1.355 2.711-54.261 49.74-1.808-2.262-1.809-2.713-1.81-2.26-2.261-2.715-2.26-2.262-2.261-2.262-2.711-1.805-2.261-1.811-3.166-1.805-2.7-0.9zm79.59-22.61l-4.973 5.424-4.975 5.428-5.426 4.975-4.973 5.426-5.427 4.975-5.426 4.971-5.427 4.977-5.424 4.973-5.879 4.977-5.426 4.973 4.07-4.973 4.973-4.977 4.974-5.428 4.973-5.422 5.428-5.426 5.424-5.428 5.879-4.975 5.878-5.426 5.427-4.521 6.34-4.52zm-56.52 62.85l10.4-9.494 10.401-9.947 9.947-9.494 9.948-9.949 9.949-9.496 9.946-9.496 9.949-9.494 10.398-9.496 10.852-9.498 11.305-9.043v3.168l-103.1 92.24z"/>
	<polygon id="polygon41" points="50.193 92.244 49.287 99.026 104.45 124.35 99.479 120.28 94.505 117.11 89.08 114.4 83.2 112.14 76.871 109.88 70.993 107.62 65.566 104.91 59.688 101.29 54.714 97.218" clip-rule="evenodd" fill-rule="evenodd"/>
	<path id="path43" d="m50.193 90.888l1.808-0.905 14.921 3.619 15.375 3.164 15.374 3.619 14.921 3.617 15.374 4.068 15.375 4.069 15.374 4.072 14.921 4.069 15.374 4.522 14.925 4.975v3.163l-0.455 0.905-0.451 0.453-0.904 0.451-0.453 0.905-0.451 0.453-0.453 0.454-6.783-0.454h-6.33l-6.331-0.453-5.879-0.905-5.876-0.451-5.878-0.453-6.332-0.905-5.878-0.452-6.33-0.903-6.33-0.452-6.333 4.068 0.905 15.826 0.906 16.28 0.902 16.278 0.906 16.729 0.452 16.732 0.903 16.278 0.452 16.73 0.453 16.279 0.903 15.826 0.905 15.824 46.574 26.229v-2.26l-4.972-2.262-4.975-2.713-4.522-2.713-4.975-2.715-4.975-2.713-4.521-3.164-4.07-3.166-4.068-3.617-3.619-4.068-2.711-4.072-7.688-150.12v-0.452l0.453-0.905v-0.451l0.452-0.452 0.451-0.453 0.904-0.454 0.453-0.452h0.453l0.45-0.45h0.905l10.4 9.946 9.948 9.496 9.497 9.497 9.495 9.496 9.045 9.494 9.042 9.495 9.043 9.497 9.045 9.496 8.592 9.945 9.043 9.952 0.451-2.262-0.451-1.809-0.906-1.81-1.355-1.808-1.809-1.809-1.811-1.808-1.807-1.355-1.355-1.811-0.455-1.809v-1.809l8.592 4.068v-0.451l0.453-0.451 0.453-0.453h0.451l0.451-0.452h0.453l0.451-0.452 0.453-0.453h0.453l0.451-0.45v-1.811l-0.451-0.45-0.453-0.906-0.453-0.453-0.451-0.452-0.904-0.903-0.451-0.453-0.453-0.452-0.453-0.453 2.262-2.262 3.619 0.906 4.068 0.905 3.615 0.903 4.07 0.905 3.619 1.355 4.068 0.905 4.07 0.903 3.617 0.453 4.07 0.453h4.068l-0.453-0.906v-0.904l0.453-0.905v-1.808l-0.453-0.452-0.451-0.453 10.854-8.138 10.854-7.689 10.852-7.685 10.85-7.236 11.305-7.688 10.855-7.686 10.85-7.688 10.854-7.686 11.303-7.688 10.855-8.139v-4.975l-112.59 79.131-4.523-37.079v31.199l-2.26-0.45-2.26-0.906-2.715-0.453-2.26-0.452-2.262-0.903-2.262-0.453-2.26-0.452-2.26-0.453-2.262-0.451-2.262-0.453-0.451-2.714v-3.166l-0.453-3.164-0.451-3.167-0.453-3.164v-3.619l-0.451-3.164v-6.783l0.451-3.619 6.332-4.07 0.904-2.261 8.59-5.427 8.139-4.972 8.141-4.975 8.139-4.522 8.139-4.521 8.141-4.069 7.688-4.522 7.688-4.522 8.139-4.521 7.688-4.521 11.305-6.783 2.262-1.358 2.711-1.809 2.711-1.356 2.717-1.81 2.711-1.808 2.715-1.809 2.711-1.808 2.711-1.808 2.717-1.811 2.711-1.808-3.617 1.358-4.07 1.808-3.617 2.261-3.615 1.808-4.072 2.261-4.066 2.261-3.617 1.808-4.072 2.261-3.615 1.358-3.617 1.356 0.9-1.809 0.455-0.905v-0.903l-0.904-0.452h-0.906l-0.904-0.453h-1.355l-1.355-0.453-0.906-0.903-0.449-0.905-0.455-1.809 0.455-1.358 0.449-1.808 1.355-1.355 0.906-1.358 1.809-0.903 1.357-1.358 1.811-0.902 1.355-0.906 1.807-0.903 1.809-4.521 3.168-3.618 3.166-3.165 4.066-2.26 4.521-1.811 4.521-1.808 4.521-1.808 4.072-2.261 4.521-2.713 3.615-3.164v-2.261h-3.164l-3.617 1.808-3.166 1.809-3.166 1.808-3.162 2.261-3.166 1.808-3.166 1.81-3.166 1.809-3.617 1.355-3.166 1.358-3.166 0.45-79.129 40.245-2.26-2.26 7.686-9.949 9.947-4.974 9.947-4.975 9.949-5.425 9.945-5.427 9.949-5.425 9.949-5.427 9.949-5.427 9.949-5.425 9.943-5.427 9.949-4.974-15.826 7.688-15.371 7.688-15.377 7.686-14.922 8.14-15.375 7.686-15.373 8.141-14.92 7.686-15.377 7.688-15.826 7.686-15.373 7.688-15.826-3.166-15.374-3.164-15.374-3.167-14.924-3.616-14.921-4.069-14.921-4.071-14.922-4.069-14.469-4.069-15.376-4.069-14.921-4.521 21.253-8.141 21.251-8.139 21.253-7.688 21.705-7.685 21.253-7.688 21.251-7.685 21.706-8.141 20.801-8.139 21.25-8.591 20.801-9.496-20.348 7.235-20.348 6.783-20.348 7.233-20.349 7.235-19.895 7.236-20.348 7.235-20.349 6.783-20.348 7.235-20.348 7.233-20.348 6.783-13.565 4.975-1.744 10.315-0.452-0.452zm237.4 7.686l-7.689 5.427 7.69-5.426zm-10.86 6.336l-6.332 4.522 6.33-4.52zm-23.96 13.11l-6.328 4.521 6.33-4.52zm-14.02 7.68l-2.26 2.261 2.26-2.26zm-20.35 10.86h1.811l-6.332 3.164 4.52-3.16z"/>
	<polygon id="polygon45" points="205.74 352.25 251.41 319.24 251.41 314.72 251.41 312.91 251.41 311.1 251.41 309.29 251.41 307.48 251.41 305.67 251.41 303.86 251.41 302.05 251.41 299.79 251.41 297.98 251.86 296.18 208.91 283.06 208.45 274.47 212.52 270.85 206.19 268.14 241.92 241.46 237.84 244.18 233.78 246.89 230.16 249.6 226.09 252.32 222.47 255.48 218.4 258.2 214.33 260.91 210.72 263.62 206.65 266.33 203.03 269.05 202.12 276.28 203.48 281.26 206.19 284.87 210.72 287.13 215.69 288.94 221.57 289.85 227 290.75 232.87 292.56 237.84 294.82 241.92 297.98 245.08 305.67 245.53 312.46 243.72 318.33 240.56 323.31 235.58 327.83 230.16 331.9 224.28 335.97 218.4 339.58 213.43 343.66 209.36 348.18 207.55 345.92 209.81 342.3 212.52 339.13 215.69 336.42 218.85 333.71 222.02 331 225.18 328.73 228.8 326.02 231.97 323.31 235.13 320.59 238.75 317.88 238.75 314.26 235.13 314.72 231.97 315.62 228.8 316.98 226.09 319.24 222.92 321.5 219.76 324.21 216.59 326.92 213.43 329.64 210.26 331.9 207.55 334.16 205.74 335.07 204.84 335.07 203.94 334.61 203.03 333.71 202.12 332.35 201.67 331.45 200.77 330.54 199.86 329.64 198.51 329.64 196.7 330.54 197.15 331.9 198.05 333.71 198.96 335.07 199.86 336.87 200.77 338.68 201.22 340.49 202.12 342.3 202.58 343.66 202.58 345.46 203.03 346.82 187.65 342.3 172.73 337.33 157.81 332.35 142.89 326.92 127.97 321.5 113.04 315.62 98.574 310.2 83.653 304.77 68.732 299.34 54.261 293.92 54.261 283.97 96.766 256.84 96.766 256.84 97.671 255.93 98.574 255.48 99.479 254.58 100.38 254.12 101.29 253.22 102.19 252.77 103.1 251.86 104.45 251.41 105.36 250.5 106.26 250.05 106.26 252.77 106.26 255.03 106.26 257.74 106.72 260 106.72 262.72 106.72 264.98 106.72 267.24 107.17 269.95 107.17 272.21 107.62 274.47 108.07 279 107.62 282.16 105.81 283.97 103.1 285.33 99.932 285.33 96.313 285.33 92.696 284.87 89.531 284.87 86.367 284.87 84.559 285.33 86.819 285.78 89.531 286.68 92.244 287.13 94.958 287.58 97.671 288.04 100.38 288.49 103.1 288.49 105.81 288.04 108.52 287.13 110.78 286.23 111.24 270.4 111.24 254.12 110.78 238.3 109.88 222.02 108.98 206.19 108.07 189.92 107.17 173.64 105.81 157.36 104.91 141.08 104.45 124.35 106.26 248.7 105.36 249.6 104.45 250.05 103.1 250.96 102.19 251.41 101.29 252.32 100.38 252.77 99.479 253.67 98.574 254.12 97.671 255.03 96.766 255.48 96.766 254.58 92.696 257.29 89.08 259.55 85.461 261.81 81.392 264.07 77.776 266.33 73.705 268.59 70.088 270.85 66.019 272.66 62.399 274.92 58.331 277.18 48.834 283.06 48.834 283.06 48.834 283.52 48.834 283.52 48.834 283.52 48.834 283.97 48.834 283.97 48.834 283.97 48.834 284.42 48.834 284.42 48.834 284.42 50.645 293.46 206.19 352.25 206.19 352.25"/>
	<polygon id="polygon47" points="275.38 199.41 270.4 199.41 270.4 196.24 270.4 193.53 270.4 190.82 269.95 188.11 269.5 185.39 269.05 182.68 268.6 179.96 268.6 177.25 268.6 174.09 269.05 171.38 277.18 165.5 286.23 159.17 294.82 153.74 303.86 147.86 312.46 141.98 321.5 136.56 330.54 131.13 339.59 126.16 348.18 120.73 357.22 115.76 361.29 109.43 352.25 114.4 343.66 119.38 335.06 124.8 326.47 130.23 317.88 136.1 309.74 141.53 301.15 146.96 292.56 151.93 283.52 156.91 274.47 161.43 271.76 163.24 269.05 164.14 265.88 164.59 263.17 164.59 260.46 164.14 257.29 163.24 254.58 162.33 251.86 160.98 248.7 160.07 246.44 159.17 246.44 158.26 240.11 162.33 264.98 169.11 269.5 206.19 382.09 127.06 382.09 124.35 371.69 131.58 361.29 139.27 350.44 146.96 340.04 154.65 329.64 162.33 318.79 170.02 307.93 177.7 297.08 185.39 286.68 192.63 275.83 199.41 275.83 199.41"/>
	<polygon id="polygon49" points="327.83 109.43 328.73 108.98 330.09 108.07 330.99 107.62 332.35 106.72 333.26 106.26 334.61 105.36 335.52 104.91 336.87 104 337.77 103.55 339.14 102.65"/>
	<polygon id="polygon51" points="382.54 142.89 382.99 136.56 284.42 214.33 294.37 207.1 304.32 199.86 313.81 192.63 323.76 185.39 333.71 178.16 343.66 170.92 353.15 164.14 363.1 156.91 373.05 150.12" clip-rule="evenodd" fill-rule="evenodd"/>
	<polygon id="polygon53" points="266.78 437.26 266.33 423.24 265.43 408.77 264.98 394.3 264.52 379.38 264.07 364.46 263.62 349.08 263.62 334.16 263.17 318.78 263.17 303.41 263.62 288.49 270.4 283.06 277.18 277.64 284.42 272.21 291.66 266.78 298.89 261.36 305.67 255.48 312.91 249.6 319.69 243.72 326.02 237.39 332.35 231.06 325.12 236.49 317.88 241.92 310.64 247.34 303.86 253.22 296.63 258.65 289.39 264.07 282.16 269.95 274.92 274.92 267.69 280.35 260.46 285.33 255.48 283.97 250.96 282.61 245.98 281.26 241.46 279.9 236.94 278.54 232.42 276.73 227.44 275.38 223.38 273.57 218.85 271.76 214.33 269.5 212.52 270.85 238.75 282.61 256.39 287.13 257.29 290.75 260.46 292.11 261.81 446.3 264.98 447.21 293.46 418.26 379.38 326.92 379.38 323.31 378.47 322.86 378.02 322.4 377.12 321.95 376.21 321.5 375.31 321.05 374.86 320.59 373.95 320.14 373.05 320.14 372.14 319.69 371.24 319.69 360.84 331.9 350.44 344.11 340.49 356.32 330.09 368.52 319.69 380.28 309.74 392.04 299.34 403.34 288.49 414.65 278.09 425.95 267.24 437.26 267.24 437.26"/>
	<polygon id="polygon55" points="205.74 267.69 212.52 270.85 214.33 269.5 214.33 269.5 213.88 269.5 213.88 269.5 213.88 269.5 213.43 269.5 213.43 269.5 213.43 269.05 212.98 269.05 212.98 269.05 212.98 269.05 219.76 263.62 227 258.2 233.78 252.32 241.01 246.89 248.24 241.46 255.48 236.04 262.72 230.61 269.95 225.18 277.18 219.76 284.42 214.33 382.99 136.56 368.98 147.41 354.96 157.81 340.94 168.66 326.92 179.06 312.91 189.46 298.89 200.31 284.42 210.72 270.4 220.66 255.93 231.06 241.92 241.46 206.19 268.14 206.19 268.14" clip-rule="evenodd" fill-rule="evenodd"/>
	<polygon id="polygon57" points="379.38 35.722 378.93 35.722 378.02 35.269 377.12 35.722 376.21 35.722 375.31 36.174 374.4 36.627 373.95 37.08 373.5 37.983 373.5 38.888 373.5 39.791 376.66 39.791 376.66 39.341 377.12 38.888 377.57 38.435 378.02 38.435 378.47 37.983 378.93 37.53 378.93 37.08 379.38 36.627 379.38 36.174 379.83 35.722 379.83 35.722"/>
	<polygon id="polygon59" points="383.45 95.863 383.45 97.671 383.45 97.671 383.45 97.671 383.45 97.218 383.9 97.218 383.9 97.218 383.9 97.218 383.9 97.218 383.9 97.218 383.9 97.218 384.35 97.218 383.9 97.218 383.9 96.765 383.9 96.765 383.9 96.765 383.9 96.765 383.9 96.313 383.45 96.313 383.45 96.313 383.45 96.313 383.45 96.313 383.45 96.313"/>
	<polygon id="polygon61" points="376.21 99.479 377.57 100.38 378.02 100.83 378.93 100.83 379.38 100.38 380.28 100.38 380.73 99.932 381.19 99.026 382.09 98.574 382.54 98.123 383.45 97.671 383.45 96.313 382.54 95.41 382.09 95.41 381.19 95.41 380.28 95.41 379.38 95.863 378.47 96.313 378.02 97.218 377.12 98.123 376.66 98.574 376.66 99.479 376.66 99.479" clip-rule="evenodd" fill-rule="evenodd"/>
	<polygon id="polygon63" points="83.2 178.61 84.559 177.25 85.915 175.9 87.27 174.99 88.627 173.64 90.436 172.73 91.792 171.83 93.602 171.38 95.41 170.47 97.219 169.57 99.027 169.11 99.027 164.59 99.027 160.07 98.574 156 98.574 151.48 98.124 147.41 97.671 143.34 97.219 138.82 96.766 134.75 95.863 130.68 95.41 126.61 12.21 163.69 16.279 165.04 20.801 166.4 25.322 167.76 29.392 169.57 33.914 170.92 38.436 172.28 42.957 173.64 47.026 175.44 51.548 176.8 55.617 178.61 50.193 178.16 45.218 177.7 40.244 176.8 34.818 175.44 29.845 174.54 24.417 173.18 19.443 171.83 14.471 170.47 9.949 169.57 5.427 169.11 4.975 178.16 4.975 187.2 4.975 195.79 5.427 204.84 5.877 213.43 5.877 222.47 6.331 231.06 6.783 239.65 7.235 248.25 7.688 256.84 61.949 227.44 57.428 222.92 53.356 218.4 48.834 213.43 44.313 208.91 39.791 204.84 34.818 200.31 30.297 196.24 25.322 192.63 20.801 188.56 16.279 185.39 17.635 248.25 15.374 251.41 14.471 244.63 13.565 237.39 13.113 230.16 12.66 223.38 12.21 216.14 11.758 208.91 11.758 201.67 11.305 194.44 10.852 187.2 10.852 179.96 14.018 176.8 69.635 191.72 70.993 190.82 71.443 189.92 71.443 189.01 71.443 188.11 70.54 186.75 70.088 185.85 69.182 184.94 68.732 184.04 68.732 183.13 69.635 182.23 70.088 182.23 70.993 182.23 71.896 182.23 72.349 182.23 73.254 181.78 74.157 182.23 75.063 182.23 75.515 182.23 76.418 182.68 77.323 183.13 75.965 190.82 78.226 189.01 81.392 188.11 84.559 186.75 87.723 185.39 90.888 184.49 93.602 183.13 96.313 181.32 97.671 179.06 99.027 176.35 99.027 173.18 97.219 173.64 95.41 174.09 94.052 174.99 92.696 176.35 91.341 177.25 89.531 178.16 88.175 179.06 86.819 179.06 85.009 179.06 83.653 178.61 83.653 178.61" fill="#C7BBA9"/>
	<polygon id="polygon65" points="217.95 136.56 213.88 139.72 220.21 136.56 218.4 136.56 218.4 136.56" fill="#A89E8F"/>
	<polygon id="polygon67" fill-rule="evenodd" points="241.46 194.89 244.18 195.34 246.44 195.79 248.7 196.24 250.96 196.7 253.22 197.15 255.48 198.05 257.74 198.5 260.46 198.96 262.72 199.86 264.98 200.31 264.98 169.11 240.11 162.33 239.66 165.95 239.66 169.11 239.66 172.73 240.11 175.9 240.11 179.52 240.56 182.68 241.01 185.85 241.46 189.01 241.46 192.18 241.92 194.89 241.92 194.89" clip-rule="evenodd" fill="#A89E8F"/>
	<polygon id="polygon69" points="377.12 197.15 377.57 196.7 378.02 196.7 378.47 196.24 378.93 196.24 378.93 195.79 379.38 195.79 379.38 195.34 379.83 194.89 379.83 194.44 379.83 193.98 378.93 193.08 378.02 192.63 377.12 192.63 376.66 193.08 375.76 193.53 375.31 193.98 374.4 194.44 374.4 195.34 373.95 196.24 374.4 197.15 377.57 197.15 377.57 197.15" clip-rule="evenodd" fill-rule="evenodd"/>
	<polygon id="polygon71" points="362.19 205.74 359.48 207.1 357.22 208.91 354.51 210.72 352.25 212.52 349.54 214.33 347.73 216.59 345.46 218.85 343.2 221.11 341.4 223.38 339.59 225.64 341.85 224.28 344.56 222.92 347.73 221.57 350.44 219.76 353.15 217.5 355.86 215.69 358.12 213.43 359.94 210.72 361.74 208.46 362.65 205.74 362.65 205.74" clip-rule="evenodd" fill-rule="evenodd"/>
	<polygon id="polygon73" points="208.91 249.15 210.72 248.7 212.07 248.25 213.88 247.79 215.24 246.89 216.59 245.99 217.95 244.63 219.31 243.72 220.21 242.82 221.11 241.46 221.57 240.56 220.21 241.46 218.85 241.92 217.5 242.37 216.14 243.27 214.78 243.72 213.43 244.63 212.07 245.53 210.72 246.44 209.81 247.79 209.36 249.15 209.36 249.15" clip-rule="evenodd" fill-rule="evenodd"/>
	<polygon id="polygon75" points="148.31 291.65 154.65 288.94 160.52 285.78 165.95 282.16 171.38 278.54 176.8 274.47 181.78 270.4 187.2 266.33 192.18 262.26 197.6 258.2 203.03 254.58 197.15 257.74 191.72 260.91 186.3 264.52 180.87 267.69 175.44 271.31 170.02 274.47 164.59 278.09 159.62 281.71 154.19 284.87 148.77 288.49 148.77 291.65 148.77 291.65"/>
	<polygon id="polygon77" fill-rule="evenodd" points="208 274.47 209.36 279.9 212.98 281.71 217.5 283.52 221.57 285.33 226.09 286.68 230.16 288.04 234.68 289.39 239.2 291.2 243.27 292.56 247.34 294.37 251.86 296.18 251.41 314.72 251.41 327.38 251.41 339.58 251.86 351.34 252.31 363.1 252.31 374.4 252.77 386.16 252.77 397.92 252.77 410.13 252.31 422.34 251.86 435.9 250.96 435.45 250.96 435 250.51 434.54 250.05 434.09 250.05 433.64 249.6 432.74 249.6 432.28 249.6 431.83 249.6 430.92 249.6 430.47 245.53 430.02 241.46 429.57 237.39 428.66 233.78 427.31 229.71 425.95 225.64 424.6 222.02 422.79 217.95 420.98 214.33 419.17 210.72 417.36 210.72 415.55 213.88 415.1 217.5 415.55 220.66 416.46 224.28 417.36 227.44 418.71 230.61 419.62 234.23 420.98 237.39 421.88 240.56 421.88 244.18 421.88 244.18 381.64 205.29 417.36 203.03 424.14 208.45 426.4 214.33 428.66 220.21 430.92 226.09 432.74 231.97 434.54 238.3 435.9 244.18 437.71 250.05 439.06 255.93 439.97 261.81 441.32 259.55 297.08 257.29 290.75 238.75 282.61 208.45 274.47 208.45 274.47" clip-rule="evenodd" fill="#D9CCB8"/>
	<polygon id="polygon79" fill-rule="evenodd" points="250.96 314.72 251.86 296.18 251.41 297.98 251.41 299.79 251.41 302.05 251.41 303.86 251.41 305.67 251.41 307.48 251.41 309.29 251.41 311.1 251.41 312.91 251.41 314.72 251.41 314.72" clip-rule="evenodd" fill="#A89E8F"/>
	<polygon id="polygon81" points="238.75 282.16 257.29 290.75 256.39 287.13 238.75 282.61 238.75 282.61" fill="#A89E8F"/>
	<polygon id="polygon83" fill-rule="evenodd" points="118.02 337.33 111.24 341.4 104.45 345.46 97.671 349.99 91.341 354.51 84.559 359.03 77.776 363.55 71.443 368.52 64.661 373.05 58.331 378.02 52.001 383 67.375 394.75 132.49 345.01 132.04 343.2 131.13 341.85 130.23 340.94 128.87 340.04 127.06 339.13 125.25 338.68 123.44 338.23 121.64 337.78 119.83 337.78 118.47 337.33 118.47 337.33" clip-rule="evenodd" fill="#D4C9BA"/>
	<polygon id="polygon85" points="242.82 345.92 231.97 354.96 221.11 364.46 210.72 373.95 200.77 383.45 190.82 392.94 180.87 402.44 170.92 412.39 160.98 421.88 150.58 431.83 140.18 441.32 243.27 349.08 243.27 345.92 243.27 345.92" fill="#fff"/>
	<polygon id="polygon87" points="134.3 351.34 134.75 348.18 69.635 401.08 134.75 351.34 134.75 351.34" fill="#BBB2A4"/>
	<polygon id="polygon89" fill-rule="evenodd" points="183.13 351.34 183.13 350.89 183.13 350.44 183.13 349.99 182.68 349.53 182.68 349.08 182.23 349.08 182.23 348.63 181.78 348.18 181.32 348.18 181.32 348.18 180.42 352.25 180.42 352.25 180.87 352.25 181.32 352.25 181.78 352.25 181.78 352.25 182.23 352.25 182.68 352.25 183.13 351.79 183.13 351.79 183.58 351.34 183.58 351.34" clip-rule="evenodd" fill="#A89E8F"/>
	<polygon id="polygon91" fill-rule="evenodd" points="193.98 372.14 193.08 369.43 191.27 367.17 189.46 364.91 187.2 363.1 184.94 361.74 182.23 360.84 179.52 359.93 176.8 359.48 174.09 359.03 171.38 359.03 165.04 362.65 159.17 366.72 153.29 370.79 147.86 374.86 141.98 378.92 137.01 383 131.58 387.52 126.61 392.04 121.64 396.56 117.11 401.08 119.83 401.99 122.99 403.79 125.25 405.6 127.97 407.41 130.23 409.67 132.49 411.93 134.75 414.65 136.56 416.91 138.37 419.62 140.18 421.88 194.44 372.14 194.44 372.14" clip-rule="evenodd" fill="#BBB2A4"/>
	<polygon id="polygon93" points="142.89 429.57 148.77 424.6 154.65 419.62 160.07 414.65 165.5 409.67 170.92 404.7 176.35 399.73 181.32 394.3 186.75 389.33 191.72 383.9 196.7 378.47 190.37 383 184.94 387.52 179.06 392.94 173.18 397.92 167.76 403.34 162.33 408.77 157.36 414.19 152.38 419.62 147.41 424.6 143.34 429.57 143.34 429.57" fill="#A89E8F"/>
	<polygon id="polygon95" points="135.2 425.05 134.3 422.34 132.49 419.62 130.23 416.91 127.97 414.19 125.25 411.93 122.54 410.13 119.83 408.32 116.66 406.96 113.5 406.06 110.78 405.6 108.52 406.06 106.72 406.96 105.81 408.32 104.45 409.67 104 411.48 103.55 413.29 103.55 415.55 103.55 417.36 104 419.17 104.45 420.98 105.36 420.98 105.36 415.55 104.45 415.55 104.91 413.74 106.26 412.39 107.62 411.03 108.98 409.67 110.33 408.77 112.14 408.32 113.95 407.86 115.76 407.86 117.57 408.32 119.38 408.77 121.64 410.58 124.35 412.39 126.16 414.65 127.97 416.91 129.32 419.17 130.23 421.43 131.58 424.14 132.04 426.86 132.94 429.57 133.39 432.74 132.94 433.64 132.04 434.54 131.58 435.9 130.68 436.8 129.78 437.71 128.87 438.61 127.97 439.06 127.06 439.52 125.7 439.97 124.8 440.42 129.32 441.32 131.58 440.88 132.94 439.97 134.3 438.61 134.75 436.8 135.2 435 135.65 433.18 135.65 431.38 135.65 429.12 135.2 426.86 135.65 425.05 135.65 425.05" fill="#A89E8F"/>
	<polygon id="polygon97" fill-rule="evenodd" points="127.52 428.21 126.16 426.86 124.8 425.5 122.54 424.14 120.73 423.69 118.47 422.79 116.66 422.79 114.4 423.24 113.04 424.14 111.69 425.5 110.78 427.31 112.14 428.66 113.04 429.57 114.4 430.92 115.76 432.28 117.11 433.18 118.47 434.09 119.83 435 121.18 435.45 122.99 435.45 124.8 435 125.25 434.54 125.7 434.09 126.16 433.18 127.06 432.74 127.52 432.28 127.97 431.38 127.97 430.92 127.97 430.02 127.97 429.12 127.97 428.21 127.97 428.21" clip-rule="evenodd" fill="#D4C7B4"/>
</g>
<metadata><rdf:RDF><cc:Work><dc:format>image/svg+xml</dc:format><dc:type rdf:resource="http://purl.org/dc/dcmitype/StillImage"/><cc:license rdf:resource="http://creativecommons.org/licenses/publicdomain/"/><dc:publisher><cc:Agent rdf:about="http://openclipart.org/"><dc:title>Openclipart</dc:title></cc:Agent></dc:publisher><dc:title>Architetto -- profilati</dc:title><dc:date>2010-03-23T16:18:32</dc:date><dc:description>Drawing by Francesco 'Architetto' Rollandin. From OCAL 0.18 release.</dc:description><dc:source>http://openclipart.org/detail/33445/architetto----profilati-by-anonymous</dc:source><dc:creator><cc:Agent><dc:title>Anonymous</dc:title></cc:Agent></dc:creator><dc:subject><rdf:Bag><rdf:li>architecture</rdf:li><rdf:li>building</rdf:li><rdf:li>clip art</rdf:li><rdf:li>clipart</rdf:li><rdf:li>construction</rdf:li><rdf:li>metal</rdf:li><rdf:li>profile</rdf:li><rdf:li>wood</rdf:li></rdf:Bag></dc:subject></cc:Work><cc:License rdf:about="http://creativecommons.org/licenses/publicdomain/"><cc:permits rdf:resource="http://creativecommons.org/ns#Reproduction"/><cc:permits rdf:resource="http://creativecommons.org/ns#Distribution"/><cc:permits rdf:resource="http://creativecommons.org/ns#DerivativeWorks"/></cc:License></rdf:RDF></metadata></svg>
